<svg width="153" height="301" xmlns="http://www.w3.org/2000/svg" xmlns:xlink="http://www.w3.org/1999/xlink" xml:space="preserve" overflow="hidden"><g><g><path d="M300.47 21.506 444.253 21.506 444.253 41.1687 300.47 41.1687Z" stroke="#2E2D62" stroke-width="1.22892" stroke-linecap="butt" stroke-linejoin="miter" stroke-miterlimit="8" stroke-opacity="1" fill="none" fill-rule="nonzero" transform="matrix(1 0 0 1.00176 -296.169 -17.8507)"/><text fill="#2E2D62" fill-opacity="1" font-family="Calibri,Calibri_MSFontService,sans-serif" font-style="normal" font-variant="normal" font-weight="400" font-stretch="normal" font-size="24" text-anchor="start" direction="ltr" writing-mode="lr-tb" unicode-bidi="normal" text-decoration="none" transform="matrix(0.614458 0 0 0.615542 9.05342 18)">NGS Data (FASTQ files)</text><path d="M358.843 57.1446 365.602 57.1446 365.602 44.8554 379.12 44.8554 379.12 57.1446 385.88 57.1446 372.361 69.4337Z" stroke="#2E2D62" stroke-width="1.22892" stroke-linecap="butt" stroke-linejoin="miter" stroke-miterlimit="8" stroke-opacity="1" fill="#FFFFFF" fill-rule="evenodd" fill-opacity="1" transform="matrix(1 0 0 1.00176 -296.169 -17.8507)"/><path d="M358.843 161.91 365.602 161.91 365.602 149.928 379.12 149.928 379.12 161.91 385.88 161.91 372.361 173.892Z" stroke="#2E2D62" stroke-width="1.22892" stroke-linecap="butt" stroke-linejoin="miter" stroke-miterlimit="8" stroke-opacity="1" fill="#FFFFFF" fill-rule="evenodd" fill-opacity="1" transform="matrix(1 0 0 1.00176 -296.169 -17.8507)"/><path d="M300.47 125.349 443.639 125.349 443.639 145.627 300.47 145.627Z" stroke="#2E2D62" stroke-width="1.22892" stroke-linecap="butt" stroke-linejoin="miter" stroke-miterlimit="8" stroke-opacity="1" fill="none" fill-rule="nonzero" transform="matrix(1 0 0 1.00176 -296.169 -17.8507)"/><text fill="#2E2D62" fill-opacity="1" font-family="Calibri,Calibri_MSFontService,sans-serif" font-style="normal" font-variant="normal" font-weight="400" font-stretch="normal" font-size="24" text-anchor="start" direction="ltr" writing-mode="lr-tb" unicode-bidi="normal" text-decoration="none" transform="matrix(0.614458 0 0 0.615542 24.5716 122)">Quality Trimming</text><path d="M300.47 178.807 443.639 178.807 443.639 198.47 300.47 198.47Z" stroke="#2E2D62" stroke-width="1.22892" stroke-linecap="butt" stroke-linejoin="miter" stroke-miterlimit="8" stroke-opacity="1" fill="none" fill-rule="nonzero" transform="matrix(1 0 0 1.00176 -296.169 -17.8507)"/><text fill="#2E2D62" fill-opacity="1" font-family="Calibri,Calibri_MSFontService,sans-serif" font-style="normal" font-variant="normal" font-weight="400" font-stretch="normal" font-size="24" text-anchor="start" direction="ltr" writing-mode="lr-tb" unicode-bidi="normal" text-decoration="none" transform="matrix(0.614458 0 0 0.615542 49.3453 176)">Mapping</text><path d="M358.843 217.211 365.756 217.211 365.756 205.229 379.581 205.229 379.581 217.211 386.494 217.211 372.669 229.193Z" stroke="#2E2D62" stroke-width="1.22892" stroke-linecap="butt" stroke-linejoin="miter" stroke-miterlimit="8" stroke-opacity="1" fill="#FFFFFF" fill-rule="evenodd" fill-opacity="1" transform="matrix(1 0 0 1.00176 -296.169 -17.8507)"/><path d="M300.47 235.337 444.253 235.337 444.253 255 300.47 255Z" stroke="#2E2D62" stroke-width="1.22892" stroke-linecap="butt" stroke-linejoin="miter" stroke-miterlimit="8" stroke-opacity="1" fill="none" fill-rule="nonzero" transform="matrix(1 0 0 1.00176 -296.169 -17.8507)"/><text fill="#2E2D62" fill-opacity="1" font-family="Calibri,Calibri_MSFontService,sans-serif" font-style="normal" font-variant="normal" font-weight="400" font-stretch="normal" font-size="24" text-anchor="start" direction="ltr" writing-mode="lr-tb" unicode-bidi="normal" text-decoration="none" transform="matrix(0.614458 0 0 0.615542 52.071 233)">Analysis</text><path d="M358.843 273.434 365.602 273.434 365.602 261.145 379.12 261.145 379.12 273.434 385.88 273.434 372.361 285.723Z" stroke="#2E2D62" stroke-width="1.22892" stroke-linecap="butt" stroke-linejoin="miter" stroke-miterlimit="8" stroke-opacity="1" fill="#FFFFFF" fill-rule="evenodd" fill-opacity="1" transform="matrix(1 0 0 1.00176 -296.169 -17.8507)"/><path d="M300.47 290.639 443.639 290.639 443.639 310.301 300.47 310.301Z" stroke="#2E2D62" stroke-width="1.22892" stroke-linecap="butt" stroke-linejoin="miter" stroke-miterlimit="8" stroke-opacity="1" fill="none" fill-rule="nonzero" transform="matrix(1 0 0 1.00176 -296.169 -17.8507)"/><text fill="#2E2D62" fill-opacity="1" font-family="Calibri,Calibri_MSFontService,sans-serif" font-style="normal" font-variant="normal" font-weight="400" font-stretch="normal" font-size="24" text-anchor="start" direction="ltr" writing-mode="lr-tb" unicode-bidi="normal" text-decoration="none" transform="matrix(0.614458 0 0 0.615542 26.4248 288)">Results Collation</text><path d="M300.47 73.1205 444.253 73.1205 444.253 92.7831 300.47 92.7831Z" stroke="#2E2D62" stroke-width="1.22892" stroke-linecap="butt" stroke-linejoin="miter" stroke-miterlimit="8" stroke-opacity="1" fill="none" fill-rule="nonzero" transform="matrix(1 0 0 1.00176 -296.169 -17.8507)"/><text fill="#2E2D62" fill-opacity="1" font-family="Calibri,Calibri_MSFontService,sans-serif" font-style="normal" font-variant="normal" font-weight="400" font-stretch="normal" font-size="24" text-anchor="start" direction="ltr" writing-mode="lr-tb" unicode-bidi="normal" text-decoration="none" transform="matrix(0.614458 0 0 0.615542 67.3993 70)">QC</text><path d="M358.843 109.066 365.602 109.066 365.602 97.0843 379.12 97.0843 379.12 109.066 385.88 109.066 372.361 121.048Z" stroke="#2E2D62" stroke-width="1.22892" stroke-linecap="butt" stroke-linejoin="miter" stroke-miterlimit="8" stroke-opacity="1" fill="#FFFFFF" fill-rule="evenodd" fill-opacity="1" transform="matrix(1 0 0 1.00176 -296.169 -17.8507)"/></g></g></svg>