<svg width="1536" height="1678" xmlns="http://www.w3.org/2000/svg" xmlns:xlink="http://www.w3.org/1999/xlink" xml:space="preserve" overflow="hidden"><g transform="translate(-861 -169)"><g><rect x="867.5" y="173.5" width="1524" height="1640" stroke="#FFFFFF" stroke-width="6.875" stroke-linecap="butt" stroke-linejoin="miter" stroke-miterlimit="8" stroke-opacity="1" fill="#FFFFFF" fill-opacity="1"/><path d="M1374 286.5C1374 237.623 1506.3 198 1669.5 198 1832.7 198 1965 237.623 1965 286.5 1965 335.377 1832.7 375 1669.5 375 1506.3 375 1374 335.377 1374 286.5Z" fill="#2E2D62" fill-rule="evenodd" fill-opacity="1"/><text fill="#FFFFFF" fill-opacity="1" font-family="Aptos,Aptos_MSFontService,sans-serif" font-style="normal" font-variant="normal" font-weight="400" font-stretch="normal" font-size="83" text-anchor="start" direction="ltr" writing-mode="lr-tb" unicode-bidi="normal" text-decoration="none" transform="matrix(1 0 0 1 1494.16 313)">NGS Data</text><rect x="1725" y="1313" width="591" height="140" fill="#156082" fill-opacity="1"/><text fill="#FFFFFF" fill-opacity="1" font-family="Aptos,Aptos_MSFontService,sans-serif" font-style="normal" font-variant="normal" font-weight="400" font-stretch="normal" font-size="83" text-anchor="start" direction="ltr" writing-mode="lr-tb" unicode-bidi="normal" text-decoration="none" transform="matrix(1 0 0 1 1796.23 1409)">Quantitation</text><path d="M1943.84 353.975 2019.37 484.796 2051.76 466.096 2024.38 568.274 1922.2 540.896 1954.59 522.196 1879.06 391.374Z" fill="#156082" fill-rule="evenodd" fill-opacity="1"/><path d="M1725 591 2316 591 2316 732.695 2057.89 732.695 2057.89 846 2090.17 846 2020.5 931 1950.83 846 1983.11 846 1983.11 732.695 1725 732.695Z" fill="#156082" fill-rule="evenodd" fill-opacity="1"/><text fill="#FFFFFF" fill-opacity="1" font-family="Aptos,Aptos_MSFontService,sans-serif" font-style="normal" font-variant="normal" font-weight="400" font-stretch="normal" font-size="83" text-anchor="start" direction="ltr" writing-mode="lr-tb" unicode-bidi="normal" text-decoration="none" transform="matrix(1 0 0 1 1856.28 688)">Trimming</text><path d="M1725 950 2316 950 2316 1091.69 2057.89 1091.69 2057.89 1205 2090.17 1205 2020.5 1290 1950.83 1205 1983.11 1205 1983.11 1091.69 1725 1091.69Z" fill="#156082" fill-rule="evenodd" fill-opacity="1"/><text fill="#FFFFFF" fill-opacity="1" font-family="Aptos,Aptos_MSFontService,sans-serif" font-style="normal" font-variant="normal" font-weight="400" font-stretch="normal" font-size="83" text-anchor="start" direction="ltr" writing-mode="lr-tb" unicode-bidi="normal" text-decoration="none" transform="matrix(1 0 0 1 1867.03 1047)">Mapping</text><path d="M1463.18 391.374 1387.65 522.196 1420.04 540.896 1317.87 568.274 1290.49 466.096 1322.88 484.796 1398.41 353.975Z" fill="#156082" fill-rule="evenodd" fill-opacity="1"/><rect x="897" y="591" width="590" height="136" fill="#156082" fill-opacity="1"/><text fill="#FFFFFF" fill-opacity="1" font-family="Aptos,Aptos_MSFontService,sans-serif" font-style="normal" font-variant="normal" font-weight="400" font-stretch="normal" font-size="83" text-anchor="start" direction="ltr" writing-mode="lr-tb" unicode-bidi="normal" text-decoration="none" transform="matrix(1 0 0 1 1132.95 685)">QC</text><path d="M2329.5 1488.5C2329.5 1542.07 2322.26 1585.5 2313.33 1585.5L1629.67 1585.5C1620.74 1585.5 1613.5 1628.93 1613.5 1682.5 1613.5 1628.93 1606.26 1585.5 1597.33 1585.5L913.666 1585.5C904.738 1585.5 897.5 1542.07 897.5 1488.5" stroke="#02BED6" stroke-width="6.875" stroke-linecap="butt" stroke-linejoin="miter" stroke-miterlimit="8" stroke-opacity="1" fill="none" fill-rule="evenodd"/><text fill="#02BED6" fill-opacity="1" font-family="Aptos,Aptos_MSFontService,sans-serif" font-style="normal" font-variant="normal" font-weight="400" font-stretch="normal" font-size="83" text-anchor="start" direction="ltr" writing-mode="lr-tb" unicode-bidi="normal" text-decoration="none" transform="matrix(1 0 0 1 1308.4 1772)">Results Collation</text></g></g></svg>